<svg width="280" height="297" viewBox="0 0 280 297" fill="none" xmlns="http://www.w3.org/2000/svg">
<path d="M43.3607 59.8022V57.2776H88.2987V200.675C88.2987 213.971 85.6058 222.892 80.22 227.436C74.8342 231.812 66.6713 234 55.7313 234C44.9596 234 35.3661 232.401 26.9508 229.203L27.7082 227.184C35.7869 230.381 44.1181 231.98 52.7018 231.98C58.4242 231.98 62.2111 229.54 64.0625 224.659C66.0822 219.778 67.092 211.868 67.092 200.928V59.8022H43.3607Z" fill="black"/>
<path d="M223.353 67.8809C208.037 61.9902 193.562 59.0448 179.929 59.0448C166.465 59.0448 155.946 61.906 148.372 67.6285C140.798 73.3509 137.011 81.2613 137.011 91.3598C137.011 103.646 143.407 113.156 156.198 119.888C161.921 122.749 168.148 125.442 174.88 127.967C181.781 130.323 188.681 133.016 195.582 136.045C202.483 139.075 208.794 142.525 214.517 146.396C220.239 150.267 224.867 155.653 228.402 162.554C231.936 169.286 233.704 177.954 233.704 188.557C233.704 198.992 230.758 207.912 224.867 215.318C218.977 222.723 211.824 227.773 203.408 230.466C195.161 232.99 185.484 234.252 174.375 234.252C153.674 234.252 136.001 229.119 121.359 218.852L122.621 216.833C128.175 221.209 135.328 224.827 144.08 227.688C153 230.381 162.089 231.728 171.346 231.728C184.979 231.728 196.592 228.614 206.185 222.387C215.947 215.991 220.828 206.65 220.828 194.364C220.828 180.899 214.432 170.38 201.641 162.806C195.919 159.44 189.607 156.326 182.707 153.465C175.974 150.604 169.158 147.658 162.257 144.629C155.357 141.431 149.045 137.897 143.323 134.026C130.531 125.61 124.136 113.66 124.136 98.1762C124.136 85.8898 128.259 75.9597 136.506 68.3858C144.753 60.6437 157.124 56.7727 173.618 56.7727C190.28 56.7727 207.195 59.6339 224.363 65.3563L223.353 67.8809Z" fill="black"/>
<g filter="url(#filter0_b_13_14)">
<rect y="117.138" width="280" height="63.5461" fill="white"/>
</g>
<path d="M56.3874 134.58C53.57 133.497 50.9074 132.955 48.3996 132.955C45.9228 132.955 43.9878 133.481 42.5946 134.534C41.2013 135.587 40.5047 137.042 40.5047 138.899C40.5047 141.159 41.6812 142.909 44.0342 144.147C45.0869 144.673 46.2324 145.169 47.4708 145.633C48.7402 146.067 50.0096 146.562 51.2789 147.119C52.5483 147.677 53.7093 148.311 54.762 149.023C55.8146 149.735 56.666 150.726 57.3162 151.996C57.9664 153.234 58.2914 154.828 58.2914 156.779C58.2914 158.698 57.7496 160.339 56.666 161.702C55.5824 163.064 54.2666 163.993 52.7186 164.488C51.2015 164.952 49.4213 165.185 47.3779 165.185C43.5698 165.185 40.319 164.24 37.6254 162.352L37.8576 161.98C38.8793 162.785 40.1951 163.451 41.8051 163.977C43.446 164.473 45.1178 164.72 46.8206 164.72C49.3284 164.72 51.4647 164.147 53.2294 163.002C55.0251 161.825 55.923 160.107 55.923 157.847C55.923 155.37 54.7465 153.435 52.3935 152.042C51.3408 151.423 50.1798 150.85 48.9105 150.324C47.672 149.797 46.4182 149.256 45.1488 148.698C43.8794 148.11 42.7184 147.46 41.6657 146.748C39.3128 145.2 38.1363 143.002 38.1363 140.153C38.1363 137.893 38.8948 136.066 40.4118 134.673C41.9289 133.249 44.2045 132.537 47.2386 132.537C50.3037 132.537 53.4152 133.063 56.5731 134.116L56.3874 134.58ZM63.5229 165.138H62.9192V132.63H64.4981L83.8174 162.677V132.63H84.4211V165.138H81.031L63.5229 138.203V165.138ZM90.6801 133.094V132.63H98.9465V133.094H96.6709V164.674H98.9465V165.138H90.6801V164.674H92.8163V133.094H90.6801ZM105.465 133.001C109.056 132.754 112.214 132.63 114.939 132.63C122.617 132.63 126.456 135.339 126.456 140.757C126.456 143.265 125.806 145.463 124.505 147.351C123.824 148.373 122.772 149.194 121.347 149.813C119.923 150.401 118.205 150.695 116.193 150.695H109.319V165.138H105.465V133.001ZM114.985 133.094C113.189 133.094 111.301 133.203 109.319 133.419V150.231H116.193C120.558 150.045 122.741 146.918 122.741 140.85C122.741 138.373 122.091 136.469 120.79 135.138C119.49 133.775 117.555 133.094 114.985 133.094ZM131.134 133.001C134.725 132.754 137.883 132.63 140.608 132.63C148.286 132.63 152.125 135.339 152.125 140.757C152.125 143.265 151.475 145.463 150.175 147.351C149.494 148.373 148.441 149.194 147.017 149.813C145.593 150.401 143.874 150.695 141.862 150.695H134.989V165.138H131.134V133.001ZM140.654 133.094C138.859 133.094 136.97 133.203 134.989 133.419V150.231H141.862C146.227 150.045 148.41 146.918 148.41 140.85C148.41 138.373 147.76 136.469 146.459 135.138C145.159 133.775 143.224 133.094 140.654 133.094ZM175.287 132.63V133.094H160.658V147.026H174.219V147.491H160.658V164.674H176.308V165.138H156.803V132.63H175.287ZM191.234 165.138H187.379V133.094H179.345V132.63H199.315V133.094H191.234V165.138ZM221.106 134.58C218.289 133.497 215.626 132.955 213.118 132.955C210.641 132.955 208.706 133.481 207.313 134.534C205.92 135.587 205.223 137.042 205.223 138.899C205.223 141.159 206.4 142.909 208.753 144.147C209.806 144.673 210.951 145.169 212.189 145.633C213.459 146.067 214.728 146.562 215.998 147.119C217.267 147.677 218.428 148.311 219.481 149.023C220.533 149.735 221.385 150.726 222.035 151.996C222.685 153.234 223.01 154.828 223.01 156.779C223.01 158.698 222.468 160.339 221.385 161.702C220.301 163.064 218.985 163.993 217.437 164.488C215.92 164.952 214.14 165.185 212.097 165.185C208.288 165.185 205.038 164.24 202.344 162.352L202.576 161.98C203.598 162.785 204.914 163.451 206.524 163.977C208.165 164.473 209.836 164.72 211.539 164.72C214.047 164.72 216.183 164.147 217.948 163.002C219.744 161.825 220.642 160.107 220.642 157.847C220.642 155.37 219.465 153.435 217.112 152.042C216.059 151.423 214.898 150.85 213.629 150.324C212.391 149.797 211.137 149.256 209.867 148.698C208.598 148.11 207.437 147.46 206.384 146.748C204.031 145.2 202.855 143.002 202.855 140.153C202.855 137.893 203.613 136.066 205.13 134.673C206.648 133.249 208.923 132.537 211.957 132.537C215.022 132.537 218.134 133.063 221.292 134.116L221.106 134.58Z" fill="black"/>
<defs>
<filter id="filter0_b_13_14" x="-4" y="113.138" width="288" height="71.5461" filterUnits="userSpaceOnUse" color-interpolation-filters="sRGB">
<feFlood flood-opacity="0" result="BackgroundImageFix"/>
<feGaussianBlur in="BackgroundImageFix" stdDeviation="2"/>
<feComposite in2="SourceAlpha" operator="in" result="effect1_backgroundBlur_13_14"/>
<feBlend mode="normal" in="SourceGraphic" in2="effect1_backgroundBlur_13_14" result="shape"/>
</filter>
</defs>
</svg>
